<?xml version="1.0" encoding="UTF-8" standalone="no"?>
<!-- Created with Inkscape (http://www.inkscape.org/) -->

<svg
   width="256"
   height="256"
   viewBox="0 0 67.733334 67.733334"
   version="1.1"
   id="svg5"
   inkscape:version="1.2.2 (732a01da63, 2022-12-09)"
   sodipodi:docname="Human.svg"
   xmlns:inkscape="http://www.inkscape.org/namespaces/inkscape"
   xmlns:sodipodi="http://sodipodi.sourceforge.net/DTD/sodipodi-0.dtd"
   xmlns="http://www.w3.org/2000/svg"
   xmlns:svg="http://www.w3.org/2000/svg">
  <sodipodi:namedview
     id="namedview7"
     pagecolor="#505050"
     bordercolor="#000000"
     borderopacity="1"
     inkscape:showpageshadow="0"
     inkscape:pageopacity="0"
     inkscape:pagecheckerboard="true"
     inkscape:deskcolor="#12a000"
     inkscape:document-units="px"
     showgrid="false"
     borderlayer="true"
     inkscape:zoom="2.2507243"
     inkscape:cx="187.9395"
     inkscape:cy="130.18032"
     inkscape:window-width="1920"
     inkscape:window-height="974"
     inkscape:window-x="-11"
     inkscape:window-y="-11"
     inkscape:window-maximized="1"
     inkscape:current-layer="layer1" />
  <defs
     id="defs2" />
  <g
     inkscape:label="Taso 1"
     inkscape:groupmode="layer"
     id="layer1">
    <ellipse
       style="fill:#e9b37c;fill-opacity:1;stroke:#230d0d;stroke-width:0.264583;stroke-opacity:1"
       id="path111"
       ry="21.166666"
       rx="33.866665"
       cy="33.129719"
       cx="33.826019" />
    <path
       style="fill:#3e3e3e;fill-opacity:1;stroke:#000000;stroke-width:0.661458;stroke-dasharray:none;stroke-opacity:1"
       d="m 4.4670805,43.02504 5.0548542,8.816604 7.9937223,-0.352664 6.93573,8.699051 c 0,0 6.583065,-5.877737 6.583065,-6.465509 0,-0.587775 6.700622,5.407517 6.700622,5.407517 l 7.405949,-6.465509 7.758613,3.29153 2.586206,-6.465511 8.463941,1.645767 -1.175546,-6.93573 5.289961,-1.763321 -1.528211,-6.230403 c 0,0 -0.470218,-4.114415 0.940439,-4.584633 1.410655,-0.47022 -11.990584,1.410657 -11.990584,1.410657 l -7.405951,-4.702191 -8.111278,2.586205 -9.874597,1.76332 -2.233541,-4.584634 -9.40438,3.879305 -6.112847,-7.523503 -6.5830654,6.70062 L 3.7617519,29.036024 0.47021901,28.21314 2.3510948,36.912191 0.35266425,42.084602 Z"
       id="path268"
       sodipodi:nodetypes="ccccsccccccccsccccccccccccc" />
    <circle
       style="fill:#000000;fill-opacity:1;stroke:#000000;stroke-width:0.661458;stroke-dasharray:none;stroke-opacity:1"
       id="path3334"
       cx="25.73073"
       cy="21.76198"
       r="1.5875" />
    <circle
       style="fill:#000000;fill-opacity:1;stroke:#000000;stroke-width:0.661458;stroke-dasharray:none;stroke-opacity:1"
       id="path3334-1"
       cx="45.839062"
       cy="21.76198"
       r="1.5875" />
    <path
       style="fill:#000000;fill-opacity:1;stroke:#000000;stroke-width:0.661458;stroke-dasharray:none;stroke-opacity:1"
       d="m 22.688067,27.037594 c 7.17084,-3.056424 7.17084,-3.056424 7.17084,-3.056424"
       id="path3689" />
    <path
       style="fill:#000000;fill-opacity:1;stroke:#000000;stroke-width:0.661458;stroke-dasharray:none;stroke-opacity:1"
       d="m 39.615952,24.098724 c 7.053284,1.998431 7.053284,2.233541 7.053284,2.233541"
       id="path3691" />
    <path
       style="fill:#000000;fill-opacity:1;stroke:#000000;stroke-width:0.661458;stroke-dasharray:none;stroke-opacity:1"
       d="m 25.744491,16.105001 c 0,0 11.63792,-5.877738 15.047008,-0.587774"
       id="path4419" />
  </g>
</svg>
