<?xml version="1.0" encoding="UTF-8" standalone="no"?>
<!-- Created with Inkscape (http://www.inkscape.org/) -->

<svg
   width="128"
   height="128"
   viewBox="0 0 128 128"
   version="1.1"
   id="svg5"
   inkscape:version="1.2.2 (732a01da63, 2022-12-09)"
   sodipodi:docname="bush2.svg"
   xmlns:inkscape="http://www.inkscape.org/namespaces/inkscape"
   xmlns:sodipodi="http://sodipodi.sourceforge.net/DTD/sodipodi-0.dtd"
   xmlns="http://www.w3.org/2000/svg"
   xmlns:svg="http://www.w3.org/2000/svg">
  <sodipodi:namedview
     id="namedview7"
     pagecolor="#505050"
     bordercolor="#000000"
     borderopacity="1"
     inkscape:showpageshadow="0"
     inkscape:pageopacity="0"
     inkscape:pagecheckerboard="1"
     inkscape:deskcolor="#0da000"
     inkscape:document-units="px"
     showgrid="false"
     inkscape:zoom="3.9105941"
     inkscape:cx="30.046585"
     inkscape:cy="62.394611"
     inkscape:window-width="1920"
     inkscape:window-height="974"
     inkscape:window-x="-11"
     inkscape:window-y="-11"
     inkscape:window-maximized="1"
     inkscape:current-layer="layer1" />
  <defs
     id="defs2" />
  <g
     inkscape:label="Taso 1"
     inkscape:groupmode="layer"
     id="layer1">
    <path
       style="fill:#499000;fill-opacity:1;stroke:#49754a;stroke-width:2;stroke-dasharray:none;stroke-opacity:1"
       d="m 9.9729092,86.43188 9.7171938,-0.255716 -5.625744,8.694331 16.621515,-0.767147 -6.648606,13.808642 16.877231,-5.37003 1.79001,15.08723 10.740056,-15.59866 10.228624,10.74006 2.812872,-11.76292 19.178672,10.48434 -4.09145,-14.320074 22.502977,6.392894 -6.648609,-16.877235 19.690099,2.301441 -7.67146,-9.972909 12.01863,-4.602881 -9.46148,-15.598653 11.5072,-3.580019 L 99.984808,48.330252 117.8849,34.265893 103.56483,35.800187 108.93485,17.388662 92.569055,26.594425 86.176164,9.7171936 80.038989,31.964453 74.15753,16.877231 65.97463,27.361571 57.536015,11.762919 52.421702,25.060131 37.590196,13.552928 l 5.370028,11.762918 -15.854368,-2.045725 6.39289,13.041497 -17.388662,-5.881459 6.392891,8.1829 L 8.9500467,38.357343 21.224396,48.074537 9.7171936,48.585968 19.434387,57.536015 5.1143124,62.138896 30.685874,68.276071 9.7171936,71.344658 17.644378,74.924677 4.6028812,79.783274 12.27435,82.596145 Z"
       id="path19847" />
    <path
       style="fill:#499000;fill-opacity:1;stroke:#49754a;stroke-width:1.61312;stroke-dasharray:none;stroke-opacity:1"
       d="m 104.49129,82.725874 -7.381161,-0.219 4.273311,7.44602 L 88.75776,89.295893 93.808031,101.12192 80.988112,96.522909 79.628423,109.44396 71.470295,96.084909 63.700647,105.28295 61.563994,95.208908 46.995906,104.18794 50.103765,91.923901 33.010546,97.398917 38.060817,82.944876 23.104248,84.91588 28.931476,76.374857 19.802143,72.432846 26.989064,59.07381 18.248214,56.007802 36.118396,50.094784 22.52152,38.049751 l 10.877499,1.314004 -4.079061,-15.768044 12.431439,7.884024 4.856026,-14.454042 4.66179,19.053054 4.467545,-12.921037 6.215719,8.979025 6.409958,-13.359037 3.884825,11.388031 11.265987,-9.855027 -4.079063,10.074028 12.042951,-1.752005 -4.856029,11.16903 13.208406,-5.037013 -4.856034,7.00802 10.294782,-0.219001 -9.323576,8.322024 8.740846,0.438001 -7.381158,7.665021 10.877508,3.94201 -19.42412,5.256015 15.92777,2.628006 -6.021467,3.066009 9.906297,4.161012 -5.82723,2.409007 z"
       id="path19847-0" />
    <path
       style="fill:#499000;fill-opacity:1;stroke:#49754a;stroke-width:1.17098;stroke-dasharray:none;stroke-opacity:1"
       d="m 29.866106,47.162681 6.263372,0.136 -3.626163,-4.623873 10.713663,0.407986 -4.285465,-7.343799 10.878487,2.855916 1.153781,-8.023774 6.922674,8.295772 6.593022,-5.711844 1.813082,6.25583 12.361919,-5.575845 -2.63721,7.615788 14.504652,-3.399912 -4.285466,8.975757 12.691563,-1.223961 -4.944761,5.303851 7.746794,2.447932 -6.098545,8.295773 7.417145,1.903947 -15.163939,3.6719 11.537787,7.479796 -9.230228,-0.815979 3.461335,9.791733 -10.548837,-4.895866 -4.12064,8.975753 -3.955814,-11.831675 -3.790988,8.02378 -5.274419,-5.575846 -5.439243,8.295771 -3.296512,-7.071806 -9.559883,6.119833 3.461337,-6.255829 -10.219186,1.08797 4.120639,-6.935809 -11.208139,3.127913 4.12064,-4.351881 -8.735756,0.135997 7.911627,-5.167859 -7.417151,-0.271992 6.263372,-4.75987 -9.230232,-2.447932 16.482558,-3.263911 -13.515698,-1.631954 5.109594,-1.903949 -8.406106,-2.583929 4.944768,-1.49596 z"
       id="path19847-8" />
  </g>
</svg>
