<?xml version="1.0" encoding="UTF-8" standalone="no"?>
<!-- Created with Inkscape (http://www.inkscape.org/) -->

<svg
   width="512"
   height="512"
   viewBox="0 0 512 512"
   version="1.1"
   id="svg5"
   inkscape:version="1.2.2 (732a01da63, 2022-12-09)"
   sodipodi:docname="hutfloor.svg"
   xmlns:inkscape="http://www.inkscape.org/namespaces/inkscape"
   xmlns:sodipodi="http://sodipodi.sourceforge.net/DTD/sodipodi-0.dtd"
   xmlns="http://www.w3.org/2000/svg"
   xmlns:svg="http://www.w3.org/2000/svg">
  <sodipodi:namedview
     id="namedview7"
     pagecolor="#505050"
     bordercolor="#000000"
     borderopacity="1"
     inkscape:showpageshadow="0"
     inkscape:pageopacity="0"
     inkscape:pagecheckerboard="1"
     inkscape:deskcolor="#0da000"
     inkscape:document-units="px"
     showgrid="false"
     inkscape:zoom="0.6913019"
     inkscape:cx="214.08881"
     inkscape:cy="91.132398"
     inkscape:window-width="1920"
     inkscape:window-height="974"
     inkscape:window-x="-11"
     inkscape:window-y="-11"
     inkscape:window-maximized="1"
     inkscape:current-layer="layer1" />
  <defs
     id="defs2">
    <filter
       inkscape:label="Evanescent"
       inkscape:menu="Blurs"
       inkscape:menu-tooltip="Blur the contents of objects, preserving the outline and adding progressive transparency at edges"
       style="color-interpolation-filters:sRGB"
       id="filter45069"
       x="-0.31338889"
       y="-0.36287717"
       width="1.6382352"
       height="1.7351032">
      <feGaussianBlur
         result="result6"
         stdDeviation="3"
         in="SourceGraphic"
         id="feGaussianBlur45063" />
      <feColorMatrix
         values="1 0 0 0 0 0 1 0 0 0 0 0 1 0 0 0 0 0 1 0 "
         result="result7"
         in="SourceGraphic"
         id="feColorMatrix45065" />
      <feComposite
         operator="in"
         in="result6"
         in2="result7"
         id="feComposite45067" />
    </filter>
    <filter
       inkscape:label="Evanescent"
       inkscape:menu="Blurs"
       inkscape:menu-tooltip="Blur the contents of objects, preserving the outline and adding progressive transparency at edges"
       style="color-interpolation-filters:sRGB"
       id="filter45077"
       x="-0.45478834"
       y="-0.50656201"
       width="1.9206888"
       height="2.022945">
      <feGaussianBlur
         result="result6"
         stdDeviation="3"
         in="SourceGraphic"
         id="feGaussianBlur45071" />
      <feColorMatrix
         values="1 0 0 0 0 0 1 0 0 0 0 0 1 0 0 0 0 0 1 0 "
         result="result7"
         in="SourceGraphic"
         id="feColorMatrix45073" />
      <feComposite
         operator="in"
         in="result6"
         in2="result7"
         id="feComposite45075" />
    </filter>
    <filter
       inkscape:label="Evanescent"
       inkscape:menu="Blurs"
       inkscape:menu-tooltip="Blur the contents of objects, preserving the outline and adding progressive transparency at edges"
       style="color-interpolation-filters:sRGB"
       id="filter45085"
       x="-0.65660635"
       y="-0.91076422"
       width="2.3265199"
       height="2.8287295">
      <feGaussianBlur
         result="result6"
         stdDeviation="3"
         in="SourceGraphic"
         id="feGaussianBlur45079" />
      <feColorMatrix
         values="1 0 0 0 0 0 1 0 0 0 0 0 1 0 0 0 0 0 1 0 "
         result="result7"
         in="SourceGraphic"
         id="feColorMatrix45081" />
      <feComposite
         operator="in"
         in="result6"
         in2="result7"
         id="feComposite45083" />
    </filter>
    <filter
       inkscape:label="Evanescent"
       inkscape:menu="Blurs"
       inkscape:menu-tooltip="Blur the contents of objects, preserving the outline and adding progressive transparency at edges"
       style="color-interpolation-filters:sRGB"
       id="filter45093"
       x="-0.14697988"
       y="-0.20290298"
       width="1.2941963"
       height="1.4061176">
      <feGaussianBlur
         result="result6"
         stdDeviation="3"
         in="SourceGraphic"
         id="feGaussianBlur45087" />
      <feColorMatrix
         values="1 0 0 0 0 0 1 0 0 0 0 0 1 0 0 0 0 0 1 0 "
         result="result7"
         in="SourceGraphic"
         id="feColorMatrix45089" />
      <feComposite
         operator="in"
         in="result6"
         in2="result7"
         id="feComposite45091" />
    </filter>
    <filter
       style="color-interpolation-filters:sRGB"
       inkscape:label="Drop Shadow"
       id="filter46909"
       x="-0.13592999"
       y="-0.13147627"
       width="1.2674063"
       height="1.2635887">
      <feFlood
         flood-opacity="0.498039"
         flood-color="rgb(0,0,0)"
         result="flood"
         id="feFlood46899" />
      <feComposite
         in="flood"
         in2="SourceGraphic"
         operator="out"
         result="composite1"
         id="feComposite46901" />
      <feGaussianBlur
         in="composite1"
         stdDeviation="13.8158"
         result="blur"
         id="feGaussianBlur46903" />
      <feOffset
         dx="-1.14007"
         dy="0.162866"
         result="offset"
         id="feOffset46905" />
      <feComposite
         in="offset"
         in2="SourceGraphic"
         operator="atop"
         result="composite2"
         id="feComposite46907" />
    </filter>
  </defs>
  <g
     inkscape:label="Taso 1"
     inkscape:groupmode="layer"
     id="layer1">
    <path
       id="path231"
       style="fill:#c4ad61;fill-opacity:1;stroke:#542e0f;stroke-width:1;stroke-dasharray:none;stroke-opacity:1;filter:url(#filter46909)"
       d="M 129,1 A 128,128 0 0 0 32.285156,46.101562 c 2.487908,-0.137654 4.977092,-0.250913 7.464844,-0.396484 4.027879,-0.205496 8.055149,-0.540379 12.089844,-0.443359 0.762804,0.06473 1.528333,0.109572 2.289062,0.195312 3.02737,0.341198 6.028587,0.883166 9.056641,1.226563 3.168781,0.359355 4.500618,0.442323 7.720703,0.705078 9.109761,0.484288 18.236715,0.284116 27.341797,-0.175781 11.216993,-0.61041 22.403133,-1.633155 33.583983,-2.699219 11.04265,-1.174657 22.09236,-2.237953 33.17188,-2.994141 4.6119,-0.379654 9.22911,-0.503047 13.84765,-0.480469 4.61856,0.02258 9.23813,0.190369 13.85352,0.396485 10.14275,0.637261 20.29724,1.014479 30.45508,1.285156 A 128,128 0 0 0 129,1 Z m 49.87305,41.845703 c -4.58466,-0.02264 -9.16811,0.101191 -13.7461,0.478516 -11.06334,0.754895 -22.0965,1.817549 -33.12304,2.990234 -11.20763,1.068599 -22.4202,2.091495 -33.664066,2.703125 -9.18446,0.46309 -18.391094,0.664742 -27.580078,0.171875 -3.262949,-0.266542 -4.590399,-0.346301 -7.802735,-0.710937 -3.003733,-0.340958 -5.979867,-0.878318 -8.982422,-1.220704 -0.724402,-0.0826 -1.453292,-0.12478 -2.179687,-0.1875 -3.984144,-0.102559 -7.96184,0.244216 -11.939453,0.439454 -3.122317,0.1827 -6.246327,0.329173 -9.369141,0.498046 a 128,128 0 0 0 -19.18164,32.101563 c 0.567177,0.02896 1.133945,0.06579 1.701171,0.09375 3.956612,0.190166 7.920642,0.189001 11.88086,0.212891 6.400819,0.0733 12.777361,-0.487684 19.152343,-0.97461 5.783179,-0.435948 11.578162,-0.698904 17.367188,-1.041015 5.32842,-0.28333 10.619415,-0.940021 15.902344,-1.66211 6.592383,-0.979767 13.20099,-1.802309 19.84375,-2.34375 8.637036,-0.585289 17.299426,-0.529043 25.951176,-0.527343 10.60761,-0.04541 21.21013,0.07104 31.80859,0.515624 1.96381,0.09166 3.92865,0.186501 5.89258,0.275391 5.99741,0.271459 11.98718,0.501591 17.99219,0.488281 4.8624,-0.01077 7.77917,-0.116497 12.64453,-0.24414 12.05389,-0.299454 24.05132,-1.558858 36.08007,-2.28711 2.55124,-0.154455 5.1057,-0.264656 7.65821,-0.396484 2.48535,-0.08892 4.96896,-0.201885 7.45508,-0.265625 0.0871,-0.0022 0.46068,-0.0054 0.57031,-0.0078 A 128,128 0 0 0 224.6543,44.572266 c -10.68324,-0.268791 -21.3621,-0.659778 -32.0293,-1.330078 -4.58142,-0.204734 -9.1673,-0.373845 -13.75195,-0.396485 z m 65.28125,30.894531 c -0.35854,0.0067 -1.23394,0.01392 -1.45313,0.01953 -2.47659,0.06341 -4.95192,0.177125 -7.42773,0.265625 -2.5417,0.131169 -5.0846,0.238794 -7.625,0.392578 -12.05485,0.72973 -24.08007,1.992025 -36.16016,2.291015 -4.89478,0.128281 -7.81197,0.235574 -12.70508,0.246094 -6.02805,0.01297 -12.04202,-0.217731 -18.0625,-0.490234 -1.96108,-0.08877 -3.92379,-0.183861 -5.88476,-0.275391 -10.57331,-0.443901 -21.14998,-0.558702 -31.73242,-0.513672 -8.60265,-0.0017 -17.21655,-0.05837 -25.804692,0.521485 -6.61005,0.537958 -13.186187,1.357638 -19.746094,2.332031 -5.328805,0.728314 -10.664437,1.389624 -16.039062,1.675781 -5.778676,0.341428 -11.563085,0.604188 -17.335938,1.039063 -6.424425,0.490698 -12.852293,1.054688 -19.302734,0.980468 -3.986275,-0.02406 -7.974399,-0.02307 -11.957031,-0.214843 -0.78075,-0.0385 -1.561075,-0.08851 -2.341797,-0.128907 A 128,128 0 0 0 3.3964844,105.75977 c 1.9469795,-0.33233 3.8871557,-0.70334 5.8359375,-1.02344 4.0433451,-0.67321 8.1005601,-1.24974 12.1738281,-1.70703 2.24145,-0.26127 4.497999,-0.34807 6.751953,-0.41797 1.892793,-0.0572 3.788149,-0.0662 5.681641,-0.0742 3.8737,0.009 7.745949,0.12746 11.61914,0.19336 5.108087,0.12165 10.215974,0.0648 15.324219,0 4.294857,-0.057 8.589749,-0.11285 12.884766,-0.15625 3.665603,-0.0604 7.330748,-0.0202 10.996093,0.0332 7.626938,0.0792 15.252608,0.2029 22.878908,0.32813 7.65748,0.20182 15.31353,0.15112 22.9707,-0.004 5.25007,-0.11599 10.50105,-0.23794 15.75195,-0.30664 0.90593,-0.008 1.81085,-0.0184 2.7168,-0.0254 2.46886,-0.0186 4.46978,-0.01 6.98828,-0.0937 5.86276,-0.19556 11.69767,-0.67316 17.54102,-1.16797 16.19618,-1.727694 32.39882,-3.38096 48.63281,-4.71289 10.05145,-0.833535 20.12404,-1.319996 30.20117,-1.6875 a 128,128 0 0 0 -8.1914,-21.197266 z m 8.68554,22.990235 c -10.19266,0.366432 -20.38013,0.854173 -30.54687,1.697265 -16.2325,1.331623 -32.43416,2.984266 -48.62891,4.710936 -5.88271,0.49782 -11.75597,0.97731 -17.6582,1.17383 -2.52895,0.0842 -4.53074,0.0771 -7.00781,0.0957 -0.90338,0.007 -1.80562,0.0154 -2.70899,0.0234 -5.24659,0.0686 -10.49251,0.19275 -15.73828,0.30859 -7.67924,0.15566 -15.35755,0.20537 -23.03711,0.004 -7.625175,-0.12521 -15.249171,-0.24892 -22.874998,-0.32812 -3.650468,-0.0532 -7.302399,-0.0935 -10.953125,-0.0332 -4.293458,0.0434 -8.585614,0.0992 -12.878906,0.15625 -5.126143,0.0651 -10.252923,0.12191 -15.378907,0 -3.860488,-0.0657 -7.721045,-0.18436 -11.582031,-0.19336 -1.877271,0.008 -3.754278,0.0175 -5.630859,0.0742 -2.205284,0.0683 -4.412402,0.15266 -6.605469,0.4082 -4.042729,0.45363 -8.070972,1.02531 -12.0839844,1.69336 -2.1857556,0.35902 -4.3622289,0.77045 -6.5449218,1.14649 A 128,128 0 0 0 1,129 a 128,128 0 0 0 0.4921875,7.17188 c 0.3904404,0.0689 0.779294,0.14845 1.1699219,0.21289 1.3576881,0.22001 2.7291094,0.33033 4.1015625,0.39843 1.318878,0.0541 2.6372358,0.0682 3.9570311,0.0801 1.409094,0.01 2.818027,0.0262 4.226563,-0.0176 2.333949,-0.0509 4.659144,-0.1819 6.980468,-0.42578 1.666999,-0.18654 3.335319,-0.37088 5.009766,-0.47461 3.45601,-0.0703 6.916254,0.0398 10.373047,0.082 5.532154,0.062 11.063266,0.0818 16.595703,0.0996 4.293762,-0.0592 8.581375,0.17619 12.867188,0.39844 3.8414,0.19105 7.684404,0.34541 11.529296,0.44531 6.007844,0.16993 11.995853,-0.49105 17.955078,-1.16797 3.034782,-0.25975 6.061348,-0.81647 9.115238,-0.83007 1.75325,-0.008 3.53453,0.15847 5.27929,0.28515 7.33076,0.62448 14.68227,0.90599 22.03125,1.20703 8.90928,0.28054 17.78161,1.15324 26.66993,1.77344 12.90791,0.89339 25.84845,0.68299 38.76562,0.17774 13.36545,-0.62042 26.72735,-1.303 40.09961,-1.76368 6.13551,-0.18472 12.26485,-0.4843 18.39453,-0.78906 A 128,128 0 0 0 257,129 128,128 0 0 0 252.83984,96.730469 Z M 105.45898,136.7793 c -3.01411,0.009 -6.00265,0.56795 -8.998042,0.82031 -6.042554,0.68623 -12.113314,1.35108 -18.205079,1.17773 -3.860455,-0.10033 -7.71922,-0.25543 -11.576171,-0.44726 -4.256568,-0.22074 -8.514821,-0.45393 -12.779297,-0.39453 -5.537852,-0.0179 -11.075713,-0.0375 -16.613282,-0.0996 -3.412352,-0.0417 -6.826657,-0.14896 -10.238281,-0.0859 -1.648631,0.10127 -3.290317,0.28621 -4.93164,0.46875 -2.365741,0.24826 -4.734744,0.38345 -7.113282,0.43555 -1.43241,0.0432 -2.865872,0.0287 -4.298828,0.0176 -1.3443212,-0.0121 -2.6878804,-0.0264 -4.0312499,-0.082 -1.4410272,-0.0718 -2.8811981,-0.18849 -4.3066406,-0.41992 -0.2499451,-0.0413 -0.498149,-0.0939 -0.7480469,-0.13672 a 128,128 0 0 0 9.0937504,39.39649 c 0.770306,-0.0471 1.539823,-0.1074 2.310547,-0.14649 3.392678,-0.16848 6.790016,-0.13992 10.183593,-0.27148 3.511071,-0.22123 7.016162,-0.52996 10.527344,-0.75 2.561456,-0.0673 5.107922,-0.24877 7.65625,-0.50391 2.035801,-0.2125 4.07866,-0.33132 6.123047,-0.41992 1.513265,-0.10425 3.022848,-0.0611 4.535156,0.0195 1.730928,0.0924 3.464346,0.13326 5.197266,0.16406 1.982607,6.8e-4 3.960846,0.13674 5.941406,0.21094 5.001753,0.19876 10.004315,-0.004 15.001953,-0.20508 5.696477,-0.31794 11.395371,-0.56384 17.097656,-0.74804 4.211056,-0.12516 8.424091,-0.19218 12.636721,-0.23438 6.05585,0.0275 12.10685,-0.23641 18.15234,-0.56445 7.91828,-0.46049 15.81226,-1.24442 23.71875,-1.86133 7.13424,-0.56654 14.28253,-0.91284 21.42383,-1.37305 6.65981,-0.45 13.33511,-0.59387 20.00391,-0.84765 8.96919,-0.39433 17.93142,-0.91487 26.90234,-1.27539 7.47611,-0.28801 14.9589,-0.27512 22.4375,-0.44922 4.80921,-0.11196 6.80138,-0.22221 10.2207,-0.37891 a 128,128 0 0 0 5.72852,-30.11719 c -6.07487,0.30139 -12.1501,0.59821 -18.23047,0.78125 -13.36947,0.46052 -26.72913,1.14365 -40.0918,1.76368 -12.98263,0.50738 -25.98761,0.71668 -38.96093,-0.18164 -8.87103,-0.61921 -17.72721,-1.48911 -26.61914,-1.76954 -7.36816,-0.30183 -14.74005,-0.58507 -22.08985,-1.21093 -1.57896,-0.1154 -3.46084,-0.28625 -5.06055,-0.28125 z m 144.64063,32.84961 c -2.94431,0.13358 -5.03102,0.24735 -9.50781,0.35156 -7.46445,0.17375 -14.93262,0.16212 -22.39453,0.44922 -8.97226,0.36053 -17.93576,0.88133 -26.90625,1.27539 -6.65294,0.25313 -13.3111,0.39704 -19.95508,0.8457 -7.13324,0.45969 -14.27425,0.8054 -21.40039,1.3711 -7.92078,0.61784 -15.82914,1.40464 -23.76172,1.86523 -6.07215,0.32919 -12.14994,0.59175 -18.23242,0.56445 -4.19921,0.042 -8.398073,0.10969 -12.595707,0.23438 -5.697577,0.184 -11.392203,0.43057 -17.083984,0.74804 -5.044376,0.20201 -10.094081,0.40587 -15.142578,0.20508 -1.968712,-0.0739 -3.933562,-0.20828 -5.904297,-0.20898 -1.754282,-0.0312 -3.50945,-0.0724 -5.261719,-0.16602 -1.45428,-0.0775 -2.90606,-0.12386 -4.361328,-0.0215 -2.01037,0.087 -4.019569,0.20496 -6.021485,0.41406 -2.570588,0.25736 -5.140864,0.44167 -7.724609,0.50977 -3.525611,0.22078 -7.042729,0.53196 -10.568359,0.75195 -3.3864,0.13022 -6.776597,0.10539 -10.16211,0.27148 -0.518523,0.0263 -1.036313,0.0675 -1.554687,0.0977 a 128,128 0 0 0 26.632812,39.56445 c 0.223858,-0.0388 0.448017,-0.0765 0.671875,-0.11523 9.411096,-1.66589 18.868186,-3.06324 28.382813,-3.97266 5.459643,-0.45525 10.927303,-0.86272 16.408203,-0.79492 3.70256,0.18599 7.375874,0.71522 11.072266,1.00586 6.870874,0.43235 13.762634,0.41222 20.644534,0.44922 6.32563,0.0827 12.63725,0.53812 18.96289,0.60742 6.20022,-0.23174 12.38452,-0.74346 18.58203,-1.04687 6.98324,-0.26299 13.96707,-0.41009 20.94531,-0.79493 7.83402,-0.59497 15.67967,-0.90553 23.5332,-1.0625 8.6285,-0.20065 17.25842,-0.32381 25.88868,-0.41601 0.86267,-7.3e-4 1.72533,0.0198 2.58789,0.0273 a 128,128 0 0 0 24.22656,-43.00976 z m -26.79492,44.79101 c -8.62458,0.0921 -17.25022,0.21549 -25.87305,0.41602 -7.83238,0.15641 -15.65583,0.46508 -23.46875,1.05859 -6.98197,0.38485 -13.97004,0.53277 -20.95703,0.79492 -6.2335,0.30504 -12.4547,0.82333 -18.69141,1.04883 -6.32217,-0.0702 -12.62902,-0.52162 -18.95117,-0.60742 -6.92592,-0.0372 -13.86256,-0.0158 -20.777342,-0.45313 -3.656735,-0.28814 -7.289194,-0.80565 -10.951172,-1 -5.415921,-0.0685 -10.819847,0.33953 -16.214844,0.78711 -9.271748,0.88504 -18.487496,2.24188 -27.660156,3.85352 A 128,128 0 0 0 129,257 128,128 0 0 0 224.13086,214.42773 c -0.27541,-6.5e-4 -0.55076,-0.008 -0.82617,-0.008 z"
       transform="matrix(1.7382165,0,0,1.7382165,32.122803,31.202874)" />
    <path
       style="fill:#c4ad61;fill-opacity:1;stroke:#542e0f;stroke-width:1.73822;stroke-dasharray:none;stroke-opacity:1"
       d="m 92.468641,255.61396 c 7.869039,2.14888 15.795469,2.51442 23.886899,2.51442 3.47377,0 5.76897,0.50819 8.80042,-0.62861 0.8774,-0.32903 1.61341,-0.99978 2.51442,-1.25719 0.60442,-0.17262 1.25904,0.0482 1.8858,0 2.09959,-0.16151 4.18315,-0.51795 6.28602,-0.62862 5.20931,-0.27416 10.49711,0 15.71507,0 11.31485,0 22.62969,0 33.94454,0 3.28914,0 6.13278,0.32893 9.42902,0.62862 6.78855,0.61712 13.91995,0 20.74391,0 2.72595,0 9.90641,0.67899 11.94343,0 2.02797,-0.676 1.36369,-1.441 3.143,-1.88582 1.01639,-0.2541 2.11569,0.20545 3.14303,0 1.94179,-0.38836 3.82142,-1.78002 5.65741,-2.51442 1.00828,-0.40329 2.66501,-0.98054 3.77162,-1.2572 1.04338,-0.26086 2.81924,0.47618 3.77161,0 0.18742,-0.0937 -0.0937,-0.4412 0,-0.6286 1.43845,-2.87688 -0.26053,2.66743 1.25722,-1.88581 0.74841,-2.24522 0.19136,-6.2404 -1.25722,-8.17183 -1.76269,-2.35026 -4.39559,-2.764 -6.91461,-3.77161 -0.55029,-0.22011 -0.68225,-1.11348 -1.25721,-1.2572 -0.60983,-0.15244 -1.26942,0.12323 -1.8858,0 -0.45945,-0.0919 -0.80266,-0.515 -1.25721,-0.62862 -3.5144,-0.87861 -7.28265,1.36465 -8.80045,4.40021 -0.6021,1.20423 -0.006,4.07524 0.62861,5.02884 1.03655,1.55481 0.56569,3.12202 2.51441,3.77162 4.55323,1.51773 -0.99106,-0.18125 1.88582,1.2572 2.42305,1.21153 8.41678,-2.02451 6.91462,-5.02882 -0.20954,-0.41907 -0.2973,-0.92591 -0.6286,-1.25721 -0.14809,-0.14811 -0.53492,0.1874 -0.62862,0 -0.73922,-1.47848 0.36859,-1.88582 -1.88579,-1.88582"
       id="path17881" />
    <path
       style="fill:#c4ad61;fill-opacity:1;stroke:#542e0f;stroke-width:1.73822;stroke-dasharray:none;stroke-opacity:1"
       d="m 303.05047,244.29911 c 0.83812,-0.41906 1.67626,-0.83814 2.51441,-1.2572 0.41906,-0.41907 0.74901,-0.95229 1.2572,-1.2572 4.61241,-2.76744 15.33437,-5.05638 20.74388,-5.65742 4.74818,-0.52758 9.73174,-0.0379 14.45786,-0.62861 4.60537,-0.57567 9.20742,-0.90169 13.82927,-1.25721 2.90814,-0.2237 5.89799,0.29026 8.80042,0 8.63383,-0.86339 16.138,-5.05296 24.5155,-6.91463 7.63109,-1.6958 -1.31895,0.2164 6.28603,-0.62859 2.71748,-0.30195 5.42835,-1.00781 8.17183,-1.25719 1.87805,-0.17071 3.79726,0.31 5.65742,0 2.28309,-0.38053 4.62638,-1.00298 6.91463,-1.25723 2.80742,-0.31192 5.95754,0 8.80044,0 3.1106,0 6.33175,-0.2581 9.42903,0 5.68532,0.47379 11.29336,1.99814 16.97226,2.51442 6.67431,0.60675 13.35744,1.25719 20.11529,1.25719"
       id="path17885" />
    <path
       style="fill:#c4ad61;fill-opacity:1;stroke:#542e0f;stroke-width:1.73822;stroke-dasharray:none;stroke-opacity:1"
       d="m 68.581747,317.84559 c 14.624502,-1.06595 29.338966,-0.62859 44.002173,-0.62859 2.77458,0 6.64808,0.61799 9.42903,0 6.77703,-1.50601 13.53887,-3.46527 20.11527,-5.65741 5.7741,-1.92472 -11.14544,0.98972 7.54325,-2.51442 1.64755,-0.30892 3.35255,0 5.02882,0 10.65904,0 21.4434,0.24621 32.05871,1.25721 1.06361,0.10134 2.07625,0.56933 3.14302,0.6286 7.72017,0.42889 15.53542,0.0769 23.2583,0.62861 9.43881,0.6742 18.80874,0.62858 28.28709,0.62858 4.48398,0 9.38702,0.23381 13.82928,0 1.68696,-0.0889 3.34123,-0.55188 5.02882,-0.62858 2.93044,-0.13314 5.87558,0.22497 8.80042,0 2.54159,-0.19553 5.00461,-1.02641 7.54323,-1.25721 3.23383,-0.29397 14.37365,0.86621 16.97226,0 1.50865,-0.50288 1.21532,-0.54479 1.88582,-1.8858"
       id="path27456" />
    <path
       style="fill:#c4ad61;fill-opacity:1;stroke:#542e0f;stroke-width:1.73822;stroke-dasharray:none;stroke-opacity:1"
       d="m 194.93083,283.27247 c 17.39134,0 34.78268,0 52.17401,0"
       id="path27458" />
    <path
       style="fill:#c4ad61;fill-opacity:1;stroke:#542e0f;stroke-width:1.73822;stroke-dasharray:none;stroke-opacity:1"
       d="m 198.70247,297.10173 c 22.25086,-1.17112 50.03097,-2.85015 72.28928,-3.14302 4.44498,-0.0584 9.24464,0.6286 13.82926,0.6286"
       id="path27460" />
    <path
       style="fill:#c4ad61;fill-opacity:1;stroke:#542e0f;stroke-width:1.73822;stroke-dasharray:none;stroke-opacity:1"
       d="m 319.39412,253.72815 c 3.76963,-2.58375 7.62801,-1.88581 11.94346,-1.88581 4.12318,0 7.89176,0.6784 11.94346,1.2572 2.43391,0.34772 5.06545,0 7.54322,0 1.86513,0 4.43705,0.36982 6.28602,0 2.60136,-0.52027 4.81535,-2.37209 6.91462,-3.77161 0.93888,-0.62589 2.24032,-0.58017 3.14301,-1.2572 0.7112,-0.53339 1.09071,-1.48824 1.8858,-1.88582 1.36441,-0.68219 2.99214,-0.67048 4.40023,-1.25719 0.89187,-0.37161 3.82274,-1.91137 5.02883,-2.51441 1.9305,-0.96525 1.79118,-1.88582 3.77162,-1.88582"
       id="path27464" />
    <path
       style="fill:#c4ad61;fill-opacity:1;stroke:#542e0f;stroke-width:1.73822;stroke-dasharray:none;stroke-opacity:1"
       d="m 447.62904,303.38775 c 0.83814,-0.62859 1.67627,-1.25721 2.51441,-1.88582 0.20954,-0.62859 0.16009,-1.41727 0.62861,-1.8858 6.07255,-6.07255 -2.43819,5.85738 3.143,-2.5144"
       id="path27466" />
    <path
       style="fill:#c4ad61;fill-opacity:1;stroke:#542e0f;stroke-width:1.73822;stroke-dasharray:none;stroke-opacity:1"
       d="m 432.54257,312.18817 c 0.45732,-1.84382 2.95091,-3.3874 3.77163,-5.02881 0.18742,-0.37482 -0.18741,-0.88238 0,-1.2572 0.70096,-1.40196 3.27608,-2.28504 3.77161,-3.77162 0.13246,-0.39757 -0.18741,-0.88237 0,-1.2572 0.26505,-0.53008 0.95229,-0.74901 1.25721,-1.25721 0.73127,-1.21877 0.80947,-3.32391 1.8858,-4.40022 0.33131,-0.3313 0.97609,-0.25378 1.2572,-0.6286 0.39757,-0.53009 0.33228,-1.29315 0.62861,-1.88581 0.39756,-0.79512 1.35242,-1.17461 1.88581,-1.88582 0.56223,-0.74963 0.59459,-1.85179 1.25721,-2.51439 0.14809,-0.14809 0.48042,0.1481 0.6286,0 0.6626,-0.66261 0.59459,-1.8518 1.2572,-2.51441 1.09813,-1.09814 9.42212,-3.14302 10.68625,-3.14302"
       id="path27470" />
    <path
       style="fill:#c4ad61;fill-opacity:1;stroke:#542e0f;stroke-width:1.73822;stroke-dasharray:none;stroke-opacity:1"
       d="m 78.010783,373.16263 c 28.012227,-9.33743 14.666553,-5.09287 77.318107,-18.22947 2.05075,-0.43 4.19068,0 6.28601,0 13.84727,0 26.69246,6.23782 40.23057,8.17182 5.26823,0.75262 11.98639,0 16.97226,0 7.70959,0 15.55059,0.29646 23.25829,0 11.14943,-0.42881 22.14195,-1.88581 33.31593,-1.88581"
       id="path36359" />
    <path
       style="fill:#c4ad61;fill-opacity:1;stroke:#542e0f;stroke-width:1.73822;stroke-dasharray:none;stroke-opacity:1"
       d="m 125.15596,383.22026 c 2.72395,-0.62859 5.38498,-1.6658 8.17183,-1.8858 29.82031,-2.35424 41.00591,-1.88581 69.14628,-1.88581 11.1053,0 22.21621,-0.35237 33.31594,0 6.49148,1.29828 4.14918,1.2572 6.91463,1.2572"
       id="path36361" />
    <path
       style="fill:#c4ad61;fill-opacity:1;stroke:#542e0f;stroke-width:1.73822;stroke-dasharray:none;stroke-opacity:1"
       d="m 205.61707,447.33772 c 0.0753,-2.85351 1.48232,-4.28385 3.77163,-5.65744 0.56819,-0.34089 1.35571,-0.23102 1.8858,-0.62858 0.37484,-0.28113 0.23877,-0.99732 0.62861,-1.25723 1.39526,-0.93016 9.19526,0.42392 11.31486,0 1.71728,-0.34345 4.47934,-1.88004 5.6574,-2.51439 2.80042,-1.50793 7.7811,-4.43635 10.05765,-6.28604 4.18295,-3.39865 5.76705,-6.56444 10.68624,-8.80043 8.59873,-3.90852 17.53231,-4.00448 27.0299,-4.40021 6.70256,-0.27928 13.41619,-0.27603 20.11529,-0.62861 3.39005,-0.17841 6.62317,-0.6286 10.05763,-0.6286"
       id="path36417" />
    <path
       style="fill:#c4ad61;fill-opacity:1;stroke:#542e0f;stroke-width:1.73822;stroke-dasharray:none;stroke-opacity:1"
       d="m 235.79001,454.25234 c 12.46428,-9.97144 0.89714,-1.25023 10.68624,-7.54321 1.51619,-0.97471 2.78803,-2.33693 4.40023,-3.14303 5.63404,-2.81702 6.76083,-1.48683 11.31483,-5.02882 0.74582,-0.58007 3.06826,-3.73422 4.4002,-4.40021 3.75916,-1.87958 9.13407,4.20003 11.94347,2.51441 0.76229,-0.45738 1.23258,-1.28282 1.8858,-1.88582 3.92857,-3.62636 8.96775,-9.29173 13.82926,-11.94344 6.04147,-3.29536 24.21581,-1.88581 32.05872,-1.88581"
       id="path36421" />
    <path
       style="fill:#c4ad61;fill-opacity:1;stroke:#542e0f;stroke-width:1.73822;stroke-dasharray:none;stroke-opacity:1"
       d="m 347.68125,366.24799 c 5.3156,2.46414 10.53222,4.34512 16.34365,5.02882 3.94862,0.46456 18.36855,2.0958 22.00109,-0.62859 1.89648,-1.42238 3.29165,-3.41574 5.02883,-5.02882 1.42705,-1.32513 5.8452,-4.877 7.54322,-6.91462 9.78086,-13.04114 -0.70705,0.44884 6.28602,-7.54324 2.32901,-2.6617 4.32626,-5.86074 6.28605,-8.80044 3.03023,-4.54536 4.23164,-8.17183 10.68624,-8.17183 1.46674,0 3.08832,-0.65594 4.4002,0 1.87414,0.93706 3.54719,2.28999 5.02884,3.77162 1.03759,1.0376 1.43968,2.69688 2.51439,3.7716"
       id="path36423" />
    <path
       style="fill:#c4ad61;fill-opacity:1;stroke:#542e0f;stroke-width:1.73822;stroke-dasharray:none;stroke-opacity:1"
       d="m 438.82861,182.06748 c -3.52496,0.33363 -7.16765,-0.39097 -10.68625,0 -2.44316,0.27144 -4.37327,0.94625 -6.91463,0.62859 -0.83813,-0.20953 -1.67626,-0.41907 -2.5144,-0.62859 0,-0.20954 0.20667,-0.59417 0,-0.62862 -2.54227,-0.4237 -13.93844,-0.50563 -16.97227,0 -2.61608,0.43601 -1.09105,0.57323 -3.14302,1.25721 -3.74061,1.24688 -16.96186,-1.22942 -18.85808,-1.88581 -2.481,-0.8588 -4.75113,-2.28422 -6.91461,-3.77161 -6.52381,-4.48513 -0.86967,-1.49827 -4.40022,-5.02882 -0.14809,-0.14817 -0.44119,0.0937 -0.6286,0 -2.24033,-1.12016 -4.27645,-2.13613 -6.91464,-0.62861 -2.91893,1.66796 -1.18385,1.55405 -2.5144,3.77161 -0.5191,0.86519 -1.99531,2.27784 -2.5144,3.14302 -0.71236,1.18727 -0.54487,1.95575 -1.25723,3.14301 -1.91814,3.19691 -5.22355,5.96529 -7.54322,8.80045 -1.2905,1.57728 -2.32625,4.21205 -3.7716,5.65742 -1.52227,0.76112 -0.92592,0.2973 -1.88582,1.25719"
       id="path36427" />
    <path
       style="fill:#c4ad61;fill-opacity:1;stroke:#542e0f;stroke-width:1.73822;stroke-dasharray:none;stroke-opacity:1"
       d="m 69.838952,197.15392 c 15.583259,-2.53026 29.129279,-16.22458 45.259368,-18.85807 6.38936,-1.04316 19.54863,-1.24172 27.0299,0.62861 2.83134,0.70782 5.38622,2.27249 8.17184,3.14302 1.56282,0.48837 2.76113,0.12336 5.02883,1.25718 3.75803,1.87901 -0.18083,1.21704 5.65741,2.51442 0.61364,0.13637 1.27155,-0.13352 1.88582,0 4.22106,0.91763 8.33627,2.29587 12.57205,3.14301 12.90306,2.58062 26.11358,-0.74281 38.97333,-1.2572 9.72121,-0.38885 19.84891,-0.0638 29.54433,0.6286 3.57753,0.25554 7.10513,1.05825 10.68624,1.2572 10.63102,0.59063 21.39873,0 32.05874,0"
       id="path36429" />
    <path
       style="fill:#c4ad61;fill-opacity:1;stroke:#542e0f;stroke-width:1.73822;stroke-dasharray:none;stroke-opacity:1"
       d="m 411.79869,126.75045 c -8.38289,3.07111 -18.4024,9.0859 -27.65849,7.54323 -2.65368,-0.44227 -4.9039,-2.07452 -7.54325,-2.51441 -2.03278,-0.3388 -3.65904,-0.45785 -5.65742,-1.25721 -1.65775,-0.66309 -3.36748,-1.22127 -5.02882,-1.8858 -1.47007,-0.58803 -3.02295,-2.05533 -4.4002,-2.51441 -0.39756,-0.13252 -0.85966,0.13251 -1.25721,0 -2.28999,-0.76333 -2.2032,-1.51963 -4.40021,-1.88582 -7.18966,-1.19827 -14.65898,2.38617 -21.37249,4.40023 -3.44116,1.03234 -7.13901,0.6286 -10.68624,0.6286"
       id="path36433" />
    <path
       style="fill:#c4ad61;fill-opacity:1;stroke:#542e0f;stroke-width:1.73822;stroke-dasharray:none;stroke-opacity:1"
       d="m 418.71333,143.72272 c -8.9083,-1.25231 -18.29068,-0.29901 -27.0299,1.88581 -1.4799,0.36996 -2.89555,1.00643 -4.40023,1.25719 -5.54489,0.92415 -11.34649,1.25722 -16.97225,1.25722 -2.41453,0 -5.79214,0.39661 -8.17185,0 -0.2923,-0.0488 -0.36356,-0.49608 -0.62859,-0.62862 -1.50335,-0.75166 -2.89514,-0.88092 -4.40023,-1.25719 -0.9091,-0.22727 -1.62543,-0.96089 -2.51442,-1.2572 -3.88299,-1.29434 -2.18566,-0.0209 -7.54322,-1.25721 -1.0995,-0.25373 -2.04353,-1.00348 -3.14302,-1.2572 -1.64605,-0.37987 -3.36674,-0.32642 -5.02881,-0.62862 -5.7295,-1.04172 -11.2804,-2.63323 -16.97226,-3.7716 -2.66982,-0.53397 -5.48608,-0.48986 -8.17184,-1.25722 -3.96554,-1.13299 -7.87184,-2.37958 -11.94343,-3.14301 -4.32886,-0.81164 -3.50314,-0.23375 -6.91463,-1.2572 -2.21632,-0.66488 -5.16035,-2.174 -7.54324,-2.51441 -2.06978,-0.29569 -2.66548,-0.13296 -4.40022,-0.6286 -1.15039,-0.32869 -4.5966,-2.10192 -6.28603,-1.2572 -0.37481,0.1874 0,0.83813 0,1.2572"
       id="path36437" />
    <path
       style="fill:#c4ad61;fill-opacity:1;stroke:#542e0f;stroke-width:1.68196;stroke-dasharray:none;stroke-opacity:1"
       d="m 189.49947,131.94241 c -6.04543,1.72783 -12.41258,0.41254 -18.34325,-2.60186 -1.0043,-0.51045 -1.96499,-1.38858 -2.9861,-1.73458 -3.76295,-1.27505 -7.70006,-1.73457 -11.51788,-1.73457 -1.63856,0 -3.9307,-0.54721 -5.54563,0 -0.19837,0.0673 -0.24673,0.68445 -0.42658,0.86728 -1.02021,1.0371 -1.96473,1.21545 -2.98613,1.73459 -0.61693,0.31357 -1.10307,1.32574 -1.70635,1.73456 -2.63511,1.78581 -1.48325,0.0288 -5.11903,1.73458 -0.74614,0.35007 -1.38681,1.38452 -2.13294,1.73459 -1.11707,0.52409 -2.28478,0.45035 -3.41271,0.86729 -3.88819,1.43728 -7.65519,3.63309 -11.51785,5.20372 -1.81181,0.73671 -3.72301,0.67585 -5.54564,1.73459 -2.69112,1.56321 -5.34205,3.28313 -8.10515,4.33643 -2.93767,1.11986 -2.37732,0.32252 -4.69246,1.73458 -1.50405,0.91736 -3.50195,2.99949 -5.11905,3.46915 -1.404608,0.40795 -1.808869,0.18344 -2.986113,0.86729 -0.780684,0.45348 -3.119376,2.90004 -4.265867,1.73458 -0.254371,-0.25857 0,-1.1564 0,-1.73458"
       id="path36437-0" />
    <path
       style="fill:#c4ad61;fill-opacity:1;stroke:#542e0f;stroke-width:1.73822;stroke-dasharray:none;stroke-opacity:1"
       d="m 164.58055,148.54799 c 3.84663,0.22442 7.70928,-0.19237 11.55671,0 4.94018,0.24701 2.81643,0.70579 8.44529,1.77795 3.4199,0.65141 7.19097,0.88899 10.66775,0.88899 0.56791,0 2.75463,0.35676 3.11142,0 0.20952,-0.20954 -0.16437,-0.64243 0,-0.88899 0.18377,-0.27566 0.65471,-0.21022 0.88897,-0.44448 0.10476,-0.10476 -0.13756,-0.38947 0,-0.44449 6.21531,-2.48613 3.23966,0.24326 9.33427,-4.44489 2.33107,-1.79314 4.52924,-3.75903 6.66735,-5.77836 1.74333,-1.64651 3.21706,-4.06381 5.33387,-5.33388 0.25409,-0.15244 0.59264,0 0.88896,0 2.08843,0 5.88967,-0.35185 8.0008,0 2.11314,0.3522 4.86378,1.76517 6.66735,2.66694 0.37483,0.18741 0.51414,0.70158 0.88897,0.88898 0.26505,0.13252 0.75646,-0.26504 0.88898,0 0.19878,0.39755 0,0.88899 0,1.33348"
       id="path41698" />
    <path
       style="fill:#000000;fill-opacity:1;stroke:#851e1e;stroke-width:1;stroke-dasharray:none;stroke-opacity:1;filter:url(#filter45093)"
       d="m 96.149073,25.827278 c 1.880941,0.549398 3.093367,2.06279 4.475027,3.324303 0.53597,0.489371 1.10459,0.941803 1.66215,1.406436 0.20964,0.174704 0.41222,0.360055 0.63929,0.511431 0.0355,0.02364 0.0977,-0.03014 0.12786,0 0.36001,0.0079 0.0326,0.288274 0.12785,0.383573 0.10866,0.108659 0.26793,0.154526 0.38358,0.255716 0.56745,0.49652 1.1017,1.029886 1.66215,1.534294 0.9668,0.870122 3.1769,3.02791 4.47502,3.707876 0.51104,0.267686 2.21068,0.76751 2.81287,1.15072 0.12965,0.0825 0.12107,0.309519 0.25572,0.383574 1.64966,0.907313 3.65877,1.612992 5.49788,2.045725 1.21928,0.286888 4.55618,-0.309247 5.88146,-1.022863 0.1353,-0.07285 0.22558,-0.232891 0.25572,-0.383573 0.0187,-0.09345 -0.22258,-0.245192 -0.12786,-0.255716 0.4257,-0.0473 0.85089,0.10474 1.27858,0.127858 8.24254,0.445543 0.26031,-0.10384 5.11431,0.255716 2.42296,0.179478 1.30051,0.127858 3.96359,0.127858 0.29834,0 0.60558,0.07236 0.89501,0 2.23042,-0.557607 2.34502,-1.652695 3.58002,-3.196446 0.35431,-0.442896 0.75709,-0.61917 1.02286,-1.15072 0.13876,-0.277517 0.13135,-0.610746 0.25572,-0.895005 0.1789,-0.408918 1.3996,-2.810441 1.53429,-3.068587 0.24702,-0.473452 0.45135,-0.975801 0.76715,-1.406436 0.16138,-0.220065 0.43096,-0.335156 0.63929,-0.511431 0.76942,-0.651053 1.20337,-1.311829 2.30144,-1.022863 1.14589,0.301551 1.44103,0.720519 2.30144,1.150721 0.0448,0.02239 0.19283,0.381471 0.25571,0.255715 0.15367,-0.307332 -0.006,-0.70159 -0.12786,-1.022862 -0.37908,-0.999406 -1.00876,-1.906458 -1.27857,-2.94073 -0.0463,-0.17763 -0.41661,-4.71363 -0.38358,-5.24217 0.0899,-1.43793 0.62112,-2.224144 1.02287,-3.580019 0.37061,-1.250808 0.41981,-2.425279 0.51143,-3.707876 0.0592,-0.828916 0.0525,-1.198614 -0.25572,-1.917868 -0.0531,-0.123876 -0.0326,-0.288273 -0.12786,-0.383573 -0.0603,-0.06027 -0.17947,0.03812 -0.25571,0 -0.10782,-0.05391 -0.17048,-0.170477 -0.25572,-0.255716 -0.63929,-0.383573 -1.24013,-0.8400901 -1.91787,-1.1507199 -0.35719,-0.1637162 -0.77105,-0.1544721 -1.15072,-0.2557156 -1.19708,-0.3192231 -2.45552,-0.639289 -3.70787,-0.639289 -0.0849,0 -0.89501,-0.1552237 -0.89501,-0.1278578 0,0.060273 0.0816,0.089272 0.12786,0.1278578 0.46534,0.3877812 1.01866,0.6853828 1.40644,1.1507203 0.26871,0.3224617 0.34999,0.7632572 0.51143,1.1507202 0.0575,0.137908 0.26316,0.42371 0,0.511431 -0.6845,0.228167 -1.84504,-1.180564 -2.17358,-1.4064356 -0.3459,-0.2378011 -0.78893,-0.298609 -1.15072,-0.5114313 -0.36736,-0.2160882 -0.67918,-0.5151119 -1.02287,-0.7671468 -1.11305,-0.8162386 -2.18447,-1.6694106 -3.3243,-2.4292984 -0.11893,-0.079284 -1.18676,-0.6163335 -1.27858,-0.6392891 -0.24808,-0.06202 -0.51491,0.042039 -0.76715,0 -0.33183,-0.055306 -0.69091,-0.3311603 -1.02286,-0.3835734 -1.64715,-0.2600758 -2.22459,-0.1201394 -3.70787,-0.639289 -0.3598,-0.1259291 -0.65936,-0.3966405 -1.02287,-0.5114313 -0.45438,-0.1434885 -0.94562,-0.1344501 -1.40643,-0.2557156 -0.35215,-0.092671 -0.67483,-0.2764852 -1.02287,-0.3835734 -0.11987,-0.036886 -0.8372,-0.1319468 -1.02286,-0.2557157 -0.0355,-0.023641 0.0301,-0.097721 0,-0.1278578 -0.73135,-0.7313489 0.0808,0.2615946 -0.89501,0.3835735 -0.38989,0.048737 -2.80832,1.9844425 -3.19644,2.0457249 -1.326,0.2093691 -2.6329,-2.6052019 -3.83573,-1.9178671 -0.8299,0.4742271 -1.5185,1.140193 -2.30144,1.6621515 -0.36954,0.2463586 -2.40724,-0.3505187 -3.06859,0.2557156 -0.39987,0.3665501 -0.75151,0.7834478 -1.15072,1.1507203 -0.66683,0.6134797 -1.40502,1.1493012 -2.04573,1.7900094 -2.88951,2.8895123 0.5708,-0.1237122 -1.53429,1.7900093 -0.59797,0.54361 -1.45795,1.100135 -1.91787,1.790009 -0.0817,0.122507 -0.12691,0.38263 -0.25571,0.511432 -0.40769,0.407692 -0.80187,-0.148096 -1.40644,0.511431 -0.32836,0.358208 -0.57876,0.781771 -0.895002,1.15072 -0.947497,1.105412 -1.896251,2.084818 -2.685014,3.324303 -0.508249,0.798676 -0.0573,1.441626 -0.255716,2.301441 -0.538624,2.334036 -0.383573,0.789396 -0.383573,3.452161 0,0.03795 0.01315,2.157148 0,2.173582 -0.150609,0.188261 -0.511432,0.270341 -0.511432,0.511432 0,0.620546 0.855648,1.273684 0.511432,1.790009 -0.06926,0.103884 -0.502482,0.515906 -0.767147,0.383573 -0.04979,-0.02489 -0.01825,-1.342557 0,-1.406435 0.07405,-0.259177 0.255715,-0.497599 0.255715,-0.767147 0,-0.269548 -0.13517,-0.526056 -0.255715,-0.767147 -0.120546,-0.241091 0.13517,0.526056 0.255715,0.767147 z"
       id="path42667"
       sodipodi:nodetypes="csscccsssscssssssssssssssssssccssscscsssscscssssssssssssscsssssssscsssssscssssssc"
       transform="matrix(2.3939786,0,0,1.7303185,-41.320741,33.888233)" />
  </g>
  <g
     inkscape:groupmode="layer"
     id="layer2"
     inkscape:label="Sus"
     transform="matrix(0.60222134,0,0,0.50592508,231.26284,131.24351)">
    <path
       style="fill:#c4ad61;fill-opacity:1;stroke:#542e0f;stroke-width:1;stroke-dasharray:none;stroke-opacity:1"
       d="m 98.834087,35.544471 c 0,0 -0.297982,8.061461 2.557153,8.1829 4.27783,0.181951 4.8586,-11.890776 4.8586,-11.890776 0,0 1.68545,10.898543 5.49789,10.228625 3.47871,-0.611274 1.53429,-10.484341 1.53429,-10.484341 0,0 -1.33364,-4.615068 0.12786,-6.392891 0.8067,-0.981303 1.72551,-1.130798 2.97184,-1.376552 1.90481,-2.627767 -0.3832,-5.704341 -3.73902,-4.504906 0,0 -0.7984,-5.61285 -2.94073,-6.904322 -2.63712,-1.589739 -6.22919,-1.613111 -8.31077,1.278578 -0.86432,1.200708 -0.51143,4.858596 -0.51143,4.858596 -0.4522,-1.139443 -6.740267,-2.902221 -5.497883,8.438616 1.1079,0.994267 -0.518896,7.108453 0.511431,8.1829 0.765817,0.798611 2.940729,0.383573 2.940729,0.383573 z"
       id="path38318"
       sodipodi:nodetypes="cscscsccssccscc" />
    <path
       style="fill:#c4ad61;fill-opacity:1;stroke:#542e0f;stroke-width:1;stroke-dasharray:none;stroke-opacity:1"
       d="m 113.28202,25.187989 c -4.51582,-0.229618 -7.1797,0.843793 -8.38534,-0.0024 -0.80836,-0.567341 -0.82042,-3.194075 -0.82042,-3.194075 l 8.43861,-2.429298"
       id="path38416"
       sodipodi:nodetypes="cscc" />
  </g>
  <g
     inkscape:groupmode="layer"
     id="layer3"
     inkscape:label="FIRE"
     transform="matrix(1.7382165,0,0,1.7382165,32.122803,31.202874)">
    <ellipse
       style="fill:#000000;fill-opacity:1;stroke:#000000;stroke-width:1.2655;stroke-dasharray:none;stroke-opacity:1"
       id="path38537"
       cx="124.49335"
       cy="21.698191"
       rx="17.858665"
       ry="15.236799" />
    <path
       style="fill:#fc0000;fill-opacity:1;stroke:#ff1b1b;stroke-width:1;stroke-dasharray:none;stroke-opacity:1;filter:url(#filter45069)"
       d="m 117.71268,29.835011 2.89309,3.616365 3.43555,-5.786184 7.23273,3.254729 5.06291,-6.690276 -5.967,-0.904091 5.06291,-3.435547 -10.30664,-2.169819 5.06291,-3.797183 -6.14782,-2.169819 -1.08491,7.413548 -5.60537,-6.871093 -1.26572,8.498458 -4.70128,1.446546 1.44655,4.882092 3.61636,-0.361636 z"
       id="path39898"
       transform="matrix(1.432072,0,0,0.98658824,-52.811281,0.30449667)" />
    <path
       style="fill:#fcb300;fill-opacity:1;stroke:#ff1b1b;stroke-width:0.684382;stroke-dasharray:none;stroke-opacity:1;filter:url(#filter45077)"
       d="m 120.17892,27.305454 1.94262,2.522577 2.30685,-4.036121 4.85654,2.270318 3.39958,-4.666765 -4.00665,-0.630644 3.39958,-2.396447 -6.92057,-1.513545 3.39958,-2.648705 -4.12806,-1.513545 -0.72848,5.171279 -3.76382,-4.792893 -0.84989,5.928053 -3.15676,1.009031 0.97131,3.405476 2.42827,-0.252257 z"
       id="path39898-0"
       transform="matrix(1.290651,0,0,0.85356859,-35.517731,3.6540644)" />
    <path
       style="fill:#dffc00;fill-opacity:1;stroke:#ff1b1b;stroke-width:0.415037;stroke-dasharray:none;stroke-opacity:1;filter:url(#filter45085)"
       d="m 122.00524,25.253591 1.31943,1.365915 1.56681,-2.185463 3.29855,1.229323 2.30899,-2.526942 -2.72131,-0.341479 2.309,-1.297618 -4.70045,-0.819549 2.30899,-1.434211 -2.80377,-0.819548 -0.49478,2.800124 -2.55639,-2.595237 -0.57724,3.209899 -2.14408,0.546366 0.65972,1.843985 1.64928,-0.136592 z"
       id="path39898-0-9"
       transform="matrix(1.0030462,0,0,0.89126314,-1.4032888,2.2603676)" />
  </g>
</svg>
