<?xml version="1.0" encoding="UTF-8" standalone="no"?>
<!-- Created with Inkscape (http://www.inkscape.org/) -->

<svg
   width="256"
   height="256"
   viewBox="0 0 256 256"
   version="1.1"
   id="svg5"
   inkscape:version="1.2.2 (732a01da63, 2022-12-09)"
   sodipodi:docname="skull.svg"
   xmlns:inkscape="http://www.inkscape.org/namespaces/inkscape"
   xmlns:sodipodi="http://sodipodi.sourceforge.net/DTD/sodipodi-0.dtd"
   xmlns="http://www.w3.org/2000/svg"
   xmlns:svg="http://www.w3.org/2000/svg">
  <sodipodi:namedview
     id="namedview7"
     pagecolor="#505050"
     bordercolor="#000000"
     borderopacity="1"
     inkscape:showpageshadow="0"
     inkscape:pageopacity="0"
     inkscape:pagecheckerboard="1"
     inkscape:deskcolor="#0da000"
     inkscape:document-units="px"
     showgrid="false"
     inkscape:zoom="1.9552971"
     inkscape:cx="75.180391"
     inkscape:cy="110.72486"
     inkscape:window-width="1920"
     inkscape:window-height="974"
     inkscape:window-x="-11"
     inkscape:window-y="-11"
     inkscape:window-maximized="1"
     inkscape:current-layer="layer1" />
  <defs
     id="defs2" />
  <path
     style="fill:#7e7e7e;fill-opacity:1;stroke:#353535;stroke-width:2.99858;stroke-opacity:1"
     d="M 200.37536,177.17411 63.315657,70.437332 c 0,0 24.67758,-34.197125 10.71707,-36.439035 -13.67264,-2.195692 -44.49536,39.867919 -48.0013,57.755663 -2.62747,13.40568 26.40539,-7.352092 26.40539,-7.352092 L 190.12507,188.82361 c 0,0 -5.3234,51.07733 8.7429,32.12943 31.14927,-41.95938 23.94083,-31.35217 28.82332,-53.62538 6.73615,-30.72937 -27.31593,9.84645 -27.31593,9.84645 z"
     id="path25302-8-2"
     sodipodi:nodetypes="ccssccssc" />
  <path
     style="fill:#7e7e7e;fill-opacity:1;stroke:#353535;stroke-width:2.99858;stroke-opacity:1"
     d="M 186.45346,67.219469 58.039195,184.21467 c 0,0 -29.521931,-30.11447 -34.09661,-16.73559 -4.480348,13.103 31.753268,50.6065 48.788452,57.09228 12.766758,4.86066 -2.772252,-27.26926 -2.772252,-27.26926 L 196.19797,79.295221 c 0,0 49.43708,13.899887 33.14618,-3.173196 -36.07556,-37.807679 -26.84293,-28.906383 -47.96698,-37.491784 -29.14392,-11.8449 5.07629,28.589228 5.07629,28.589228 z"
     id="path25302-8"
     sodipodi:nodetypes="ccssccssc" />
  <g
     inkscape:groupmode="layer"
     id="layer4"
     inkscape:label="Bones" />
  <g
     inkscape:groupmode="layer"
     id="layer5"
     inkscape:label="Chin">
    <path
       style="fill:#818181;fill-opacity:1;stroke:#353535;stroke-width:2;stroke-opacity:1"
       d="m 83.176395,166.35279 c 0,0 1.808182,40.14165 17.358555,36.52529 15.55037,-3.61637 22.7831,-5.06292 22.7831,-5.06292 l 23.50637,6.50946 c 0,0 20.61328,-11.57237 24.22964,-35.44038"
       id="path30964" />
  </g>
  <g
     inkscape:label="Skullfront"
     inkscape:groupmode="layer"
     id="layer1">
    <path
       style="fill:#7e7e7e;fill-opacity:1;stroke:#353535;stroke-width:2;stroke-opacity:1"
       d="m 77.226117,158.03226 3.068587,7.67146 93.591916,3.58002 c 0,0 25.57156,-83.874723 -6.13718,-98.194798 C 136.04071,56.768867 127.73356,53.458339 97.683366,69.043217 66.949398,84.982718 77.226117,158.03226 77.226117,158.03226 Z"
       id="path27286"
       sodipodi:nodetypes="cccssc" />
    <path
       style="fill:#353535;fill-opacity:1;stroke:#353535;stroke-width:1.96072;stroke-opacity:1"
       d="m 171.58362,123.55735 c 5.18684,-4.07654 6.62931,-12.81937 2.82608,-19.83752 -1.46404,-2.70161 -2.45315,-6.714859 -6.59652,-9.876691 -6.1564,-4.697991 -12.27129,-1.894406 -15.77156,-1.659614 -10.8914,0.730575 -9.02697,15.836655 -6.93981,23.345355 6.16896,4.37455 22.50158,10.62997 26.48181,8.02847 z"
       id="path28986-9"
       sodipodi:nodetypes="cssscc" />
    <path
       style="fill:#353535;fill-opacity:1;stroke:#353535;stroke-width:2;stroke-opacity:1"
       d="m 119.89208,145.52256 c 3.74732,1.35223 5.25807,-2.41487 11.20256,-2.31429 6.12349,0.10361 8.40177,4.30798 12.8192,1.99919 1.39138,2.78277 -0.69546,-15.71515 -6.4382,-21.53046 -1.44829,-1.4666 -4.14471,-12.44534 -6.51464,-12.33685 -2.04937,0.0938 -4.31077,9.83628 -5.04299,10.97122 -5.11431,7.92719 -6.02593,23.21119 -6.02593,23.21119 z"
       id="path29086"
       sodipodi:nodetypes="cscsssc" />
    <path
       style="fill:#a5a5a5;fill-opacity:1;stroke:#353535;stroke-width:2;stroke-opacity:1"
       d="m 87.199027,166.47087 c -2.557157,8.69433 -1.278579,10.74005 -1.278579,10.74005 l 4.858597,-10.74005 -3.324303,9.97291 c 0,0 5.625744,3.3243 6.137175,0.51143 0.511431,-2.81287 0.767147,-9.71719 0.767147,-9.71719 l -0.255716,11.5072 4.602881,1.02286 c 0,0 3.068591,-16.87723 3.068591,-13.0415 0,3.83574 -1.790012,11.50721 -1.790012,11.50721 l 6.392892,0.76714 1.27858,-11.5072 0.25571,12.53007 2.55716,1.53429 2.81287,-2.81287 1.79001,-11.25149 -0.25572,10.74006 c 0,0 6.13718,1.53429 6.64861,-0.51143 0.51143,-2.04573 1.02286,-10.99578 1.02286,-10.99578 l 0.25572,13.0415 c 0,0 5.62574,0 5.62574,-1.53429 0,-1.5343 1.5343,-10.48434 1.5343,-10.48434 v 11.76292 1.02286 l 1.53429,-0.76715 1.02286,1.27858 2.30144,-12.53007 0,12.78578 h 3.83574 l -0.76715,-13.04149 1.53429,12.01863 2.04573,-0.76714 1.02286,-10.74006 0.76715,9.97291 6.39289,2.30144 -0.76715,-12.27435 2.30144,12.01863 3.06859,2.04573 0.51143,-2.30144 1.79001,2.30144 0.25572,-2.81287 3.3243,1.27857 -1.02286,-12.78578 2.55715,12.53007 h 5.62575 l -1.79001,-10.99577"
       id="path29088"
       sodipodi:nodetypes="ccccscccsccccccccsccscccccc" />
    <path
       style="fill:#a5a5a5;fill-opacity:0;stroke:#353535;stroke-width:2;stroke-opacity:1"
       d="m 78.47512,161.28988 19.890008,-6.14782 -1.446546,-7.59437 15.188728,-6.50946 8.2813,2.9702"
       id="path30954"
       sodipodi:nodetypes="ccccc" />
    <path
       style="fill:#a5a5a5;fill-opacity:0;stroke:#353535;stroke-width:2;stroke-opacity:1"
       d="m 133.44387,59.670022 3.25473,13.380551 -6.14782,4.701274 4.33963,5.424548 -1.80818,8.317639 16.27364,4.701275"
       id="path30956" />
    <path
       style="fill:#a5a5a5;fill-opacity:0;stroke:#353535;stroke-width:2;stroke-opacity:1"
       d="m 179.01007,143.93133 -7.95601,3.25472 -2.53145,-9.40254 -10.12582,2.16981"
       id="path30958" />
    <path
       style="fill:#353535;fill-opacity:1;stroke:#353535;stroke-width:1.9287;stroke-opacity:1"
       d="m 91.945962,121.32435 c -5.013892,-4.08053 -6.408264,-12.83194 -2.731848,-19.85696 1.415224,-2.704264 2.371353,-6.721445 6.376568,-9.886376 5.951128,-4.702595 11.862128,-1.896262 15.245678,-1.661239 10.52824,0.731286 8.72598,15.852175 6.70841,23.368225 -5.96326,4.37884 -21.751293,10.6404 -25.598808,8.03635 z"
       id="path28986-9-5"
       sodipodi:nodetypes="cssscc" />
  </g>
</svg>
