<?xml version="1.0" encoding="UTF-8" standalone="no"?>
<!-- Created with Inkscape (http://www.inkscape.org/) -->

<svg
   width="384"
   height="384"
   viewBox="0 0 384 384"
   version="1.1"
   id="svg5"
   inkscape:version="1.2.2 (732a01da63, 2022-12-09)"
   sodipodi:docname="tree.svg"
   xmlns:inkscape="http://www.inkscape.org/namespaces/inkscape"
   xmlns:sodipodi="http://sodipodi.sourceforge.net/DTD/sodipodi-0.dtd"
   xmlns="http://www.w3.org/2000/svg"
   xmlns:svg="http://www.w3.org/2000/svg">
  <sodipodi:namedview
     id="namedview7"
     pagecolor="#505050"
     bordercolor="#000000"
     borderopacity="1"
     inkscape:showpageshadow="0"
     inkscape:pageopacity="0"
     inkscape:pagecheckerboard="1"
     inkscape:deskcolor="#0da000"
     inkscape:document-units="px"
     showgrid="false"
     inkscape:zoom="1.3826038"
     inkscape:cx="84.622941"
     inkscape:cy="206.1328"
     inkscape:window-width="1920"
     inkscape:window-height="974"
     inkscape:window-x="-11"
     inkscape:window-y="-11"
     inkscape:window-maximized="1"
     inkscape:current-layer="layer1" />
  <defs
     id="defs2" />
  <g
     inkscape:label="Taso 1"
     inkscape:groupmode="layer"
     id="layer1">
    <path
       style="fill:#71ac42;fill-opacity:1;stroke:#556f30;stroke-width:1.41027;stroke-opacity:1"
       d="m 248.61248,213.18677 c 0,0 -18.40177,-13.51121 -5.85624,-17.59477 0.98335,14.41069 48.97376,18.62344 48.97376,18.62344 0,0 -42.83165,-24.15631 -35.63788,-33.25684 6.90709,11.01348 51.45689,18.96111 51.45689,18.96111 0,0 -29.21872,-10.35539 -24.66271,-23.38699 11.47736,7.17912 47.47525,19.98582 47.47525,19.98582 0,0 -34.86177,-14.18711 -32.26511,-30.39782 14.10658,7.55287 53.55037,18.71764 53.55037,18.71764 0,0 -34.19819,-10.01219 -33.05579,-27.49968 16.98902,3.68193 48.56358,21.43703 48.56358,21.43703 0,0 -21.52909,-13.45276 -20.67686,-28.83057 20.41667,1.25866 35.93757,0.73666 35.93757,0.73666 0,0 -22.47432,-2.84226 -24.53952,-13.27534 12.22318,-6.38467 15.94288,-9.20096 15.94288,-9.20096 0,0 -22.31183,-3.58557 -26.58554,1.04339 -7.84673,-6.66873 0.0895,-22.02025 0.0895,-22.02025 0,0 -16.9906,6.82578 -18.88651,24.05681 -9.38066,-2.01297 -5.65688,-13.8069 -5.65688,-13.8069 0,0 -16.87565,11.28978 -14.41773,23.90195 -11.4485,1.6179 -5.40914,-22.17342 -5.40914,-22.17342 0,0 -16.12731,19.97627 -14.81878,34.93866 -10.88241,0.583 -5.94813,-36.28293 -5.94813,-36.28293 0,0 -17.27625,27.16698 -14.02506,40.43072 -8.06438,1.62632 -11.67378,-40.08468 -11.67378,-40.08468 0,0 -15.9586,27.39263 -11.88337,44.48038 -9.96458,-1.99052 -4.02665,-42.49844 -4.02665,-42.49844 0,0 -16.54769,34.79236 -13.85809,46.04684 -8.67581,-0.50163 -2.05211,-16.38617 -2.05211,-16.38617 L 210.47305,190.92 c 0,0 14.27984,13.70962 38.13943,22.26677 z"
       id="path800-9-95"
       sodipodi:nodetypes="cccccccccccccccccccccccccccccccc" />
    <path
       style="fill:#71ac42;fill-opacity:1;stroke:#556f30;stroke-width:2.20402;stroke-dasharray:none;stroke-opacity:1"
       d="m 372.168,128.12973 c 0,0 -51.76448,20.52537 -78.21649,30.44808 -26.62479,9.98753 -83.34097,32.72483 -83.34097,32.72483"
       id="path4410-6-1"
       sodipodi:nodetypes="csc" />
    <path
       style="fill:#71ac42;fill-opacity:1;stroke:#556f30;stroke-width:1.23231;stroke-opacity:1"
       d="m 163.42467,204.59531 c 0,0 20.94196,-2.26368 13.69499,7.43959 -8.35767,-8.28068 -30.01497,19.97986 -30.01497,19.97986 0,0 34.41014,-10.0663 33.82879,-0.35389 -11.00273,-2.79732 -30.67838,13.65604 -30.67838,13.65604 0,0 23.46186,-11.18034 26.93698,-0.56835 -12.40177,2.17786 -30.54602,22.51649 -30.54602,22.51649 0,0 23.14309,-20.07457 29.76844,-8.63536 -14.57078,3.45674 -29.90889,24.93284 -29.90889,24.93284 0,0 19.62665,-16.02305 28.01749,-4.63443 -14.68497,7.48615 -28.3918,28.61812 -28.3918,28.61812 0,0 18.14842,-16.31747 25.64123,-6.39018 -15.97352,10.9398 -23.62891,28.46137 -23.62891,28.46137 0,0 17.17738,-14.51395 24.24287,-9.2952 -5.78843,10.93072 11.61959,23.1069 11.61959,23.1069 0,0 1.27193,-18.39582 2.02846,-23.68858 9.40972,-0.40834 27.24992,11.58065 27.24992,11.58065 0,0 -16.4786,-24.96129 -28.24948,-28.39128 8.09783,-4.14585 25.20935,4.62548 25.20935,4.62548 0,0 -12.64144,-18.22159 -21.15366,-24.5525 7.72828,-7.56061 24.77669,9.58219 24.77669,9.58219 0,0 -15.02308,-24.24435 -23.9163,-32.67712 7.8511,-6.60069 22.24707,17.11984 22.24707,17.11984 0,0 -8.17556,-25.72589 -17.62711,-32.00165 5.18651,-5.62443 23.50105,20.71729 23.50105,20.71729 0,0 -3.43106,-23.30613 -15.52262,-31.45624 8.52381,-4.49462 25.49233,23.77423 25.49233,23.77423 0,0 -5.99119,-30.84723 -13.95914,-36.21196 6.77017,-4.6691 10.20364,8.8801 10.20364,8.8801 L 203.79542,196.3827 c 0,0 -17.95635,-0.22265 -40.37075,8.21261 z"
       id="path800-9-5"
       sodipodi:nodetypes="ccccccccccccccccccccccccccccccc" />
    <path
       style="fill:#71ac42;fill-opacity:0;stroke:#556f30;stroke-width:1.92588;stroke-dasharray:none;stroke-opacity:1"
       d="m 183.07472,342.13234 c 0,0 -6.10889,-55.49164 0.51188,-80.79704 7.20826,-27.5507 19.90339,-65.10856 19.90339,-65.10856"
       id="path4410-6-7"
       sodipodi:nodetypes="csc" />
    <path
       style="fill:#71ac42;fill-opacity:1;stroke:#556f30;stroke-width:1.59082;stroke-opacity:1"
       d="m 209.36032,246.88863 c 0,0 0.11687,-27.77949 11.2739,-16.11403 -11.57575,8.97331 16.22417,50.88337 16.22417,50.88337 0,0 -7.77529,-47.10529 4.33489,-44.11388 -5.066,13.67781 17.50852,50.7898 17.50852,50.7898 0,0 -15.42022,-40.82695 -1.60771,-42.90858 0.98187,16.64358 28.65001,52.65624 28.65001,52.65624 0,0 -21.93072,-34.74257 -6.63472,-40.73425 2.28089,19.76104 41.76498,50.58533 41.76498,50.58533 0,0 -34.98513,-33.20435 -19.50324,-41.5057 7.323,20.83684 41.23044,55.69896 41.23044,55.69896 0,0 -29.35779,-31.95827 -15.83721,-39.42694 11.47645,23.30868 37.13312,48.07177 37.13312,48.07177 0,0 -22.74065,-30.02663 -15.1912,-38.02243 12.90396,10.04933 28.57703,12.0512 28.57703,12.0512 0,0 -17.78361,-22.62487 -24.32091,-24.82741 0.81673,-12.34191 23.64561,-17.62581 23.64561,-17.62581 0,0 -28.43403,-4.71925 -44.162,2.60693 -4.06043,-11.49424 17.03443,-20.08809 17.03443,-20.08809 0,0 -31.653,2.72031 -40.80294,12.34333 -8.39929,-11.79892 22.00024,-24.02067 22.00024,-24.02067 0,0 -33.41578,1.98736 -45.25807,11.62273 -7.17692,-11.73793 27.01246,-26.43976 27.01246,-26.43976 0,0 -34.14812,0.33787 -43.36152,11.19625 -6.32783,-8.04502 25.40033,-25.91499 25.40033,-25.91499 0,0 -32.95391,-2.69491 -44.89321,11.16854 -4.43807,-12.12901 33.44593,-27.71129 33.44593,-27.71129 0,0 -39.56991,0.70064 -47.4301,9.83758 -4.9048,-9.88652 7.95327,-11.31512 7.95327,-11.31512 l -38.7927,6.81964 c 0,0 -2.81631,23.32126 4.6062,54.43728 z"
       id="path800"
       sodipodi:nodetypes="ccccccccccccccccccccccccccccccc" />
    <path
       style="fill:#71ac42;fill-opacity:1;stroke:#556f30;stroke-width:2.48618;stroke-dasharray:none;stroke-opacity:1"
       d="m 375.63409,304.0244 c 0,0 -58.63062,-33.72003 -87.22632,-52.30596 -28.44756,-18.48969 -83.89261,-58.90539 -83.89261,-58.90539"
       id="path4410"
       sodipodi:nodetypes="csc" />
    <path
       style="fill:#71ac42;fill-opacity:1;stroke:#556f30;stroke-width:1.39256;stroke-opacity:1"
       d="m 166.47472,172.8765 c 0,0 21.31658,8.95615 17.87006,-3.68233 -12.55363,6.24745 -30.97008,-29.42733 -30.97008,-29.42733 0,0 32.22929,21.50344 35.88912,10.93529 -12.95606,-0.44202 -30.26759,-30.41427 -30.26759,-30.41427 0,0 23.66904,25.51468 32.04744,15.25039 -12.2547,-6.19923 -26.22271,-39.848613 -26.22271,-39.848613 0,0 15.81453,28.690473 27.91397,18.524593 -14.00231,-8.24377 -18.19519,-49.563768 -18.19519,-49.563768 0,0 8.22442,38.531168 22.18272,28.970379 -12.34867,-12.588587 -22.37117,-50.806007 -22.37117,-50.806007 0,0 10.03522,33.667281 22.39284,25.389009 -12.19998,-16.684116 -18.547,-45.075641 -18.547,-45.075641 0,0 11.80759,27.795941 21.63529,24.419736 -1.35162,-13.495966 4.81583,-26.564332 4.81583,-26.564332 0,0 8.57828,21.457935 7.0524,27.354261 9.84628,3.373141 25.1046,-12.990836 25.1046,-12.990836 0,0 -10.35657,24.062792 -23.68953,34.136168 6.80171,6.960758 23.74123,-6.951367 23.74123,-6.951367 0,0 -17.63124,24.189553 -29.4905,28.303638 4.90341,10.49726 29.19018,-9.604386 29.19018,-9.604386 0,0 -17.93629,25.824816 -31.12759,32.067786 5.45722,9.50901 33.50371,-12.7871 33.50371,-12.7871 0,0 -17.03374,26.94227 -29.86953,30.70424 3.04818,7.63346 32.31014,-11.68092 32.31014,-11.68092 0,0 -14.12615,26.98409 -30.60075,31.92669 7.10192,7.46666 37.6372,-17.46954 37.6372,-17.46954 0,0 -19.97482,31.11926 -30.82845,34.3699 5.15652,7.10602 14.78463,-6.3124 14.78463,-6.3124 l -26.49412,32.2079 c 0,0 -19.23085,-5.36542 -39.39715,-21.38114 z"
       id="path800-9"
       sodipodi:nodetypes="ccccccccccccccccccccccccccccccc" />
    <path
       style="fill:#71ac42;fill-opacity:1;stroke:#556f30;stroke-width:1.90854;stroke-dasharray:none;stroke-opacity:1"
       d="m 210.7301,37.151234 c 0,0 -4.70252,52.352463 -4.55406,78.521496 0.14767,26.03347 -1.00614,78.3089 -1.00614,78.3089"
       id="path4410-6"
       sodipodi:nodetypes="csc" />
    <path
       style="fill:#71ac42;fill-opacity:1;stroke:#556f30;stroke-width:1.2786;stroke-opacity:1"
       d="m 171.31268,167.82658 c 0,0 14.67676,14.79267 -0.6106,13.08643 4.65351,-9.4174 -38.21509,-29.18622 -38.21509,-29.18622 0,0 28.03827,35.51792 16.58731,38.79918 -3.14848,-9.29724 -39.64058,-28.62016 -39.64058,-28.62016 0,0 32.64245,24.17139 22.50306,30.82997 -9.6498,-8.43985 -49.70463,-19.95588 -49.70463,-19.95588 0,0 29.04137,16.42539 19.77328,25.75591 -12.365183,-9.57234 -54.044679,-7.21519 -54.044679,-7.21519 0,0 37.563849,6.12572 29.372593,16.75701 -17.042605,-8.11611 -55.040058,-13.20267 -55.040058,-13.20267 0,0 35.11138,12.9022 28.07427,22.30291 -21.738798,-7.75822 -47.3380864,-3.51298 -47.3380864,-3.51298 0,0 30.5340864,5.13174 28.6390574,12.41143 -15.850358,-0.14606 -25.5128115,12.40231 -25.5128115,12.40231 0,0 18.7025425,-1.1192 25.1965025,-2.57855 5.897879,6.87964 -5.931418,20.52666 -5.931418,20.52666 0,0 17.202206,-16.00145 26.11235,-26.21405 9.41819,4.46872 1.190369,16.58783 1.190369,16.58783 0,0 21.229998,-22.10497 23.562881,-30.89194 13.112954,2.88592 -4.836023,24.59029 -4.836023,24.59029 0,0 27.565204,-22.89515 32.083683,-32.77118 12.08524,3.34502 -7.630643,27.88966 -7.630643,27.88966 0,0 29.038573,-21.84357 30.766243,-31.31178 9.43016,1.72617 -6.59713,26.96288 -6.59713,26.96288 0,0 29.24945,-19.75357 31.59861,-31.91289 10.06317,4.6538 -13.48135,36.09139 -13.48135,36.09139 0,0 29.1859,-22.88535 30.72709,-30.89568 9.25083,3.2758 -0.32566,12.69039 -0.32566,12.69039 l 35.41926,-22.3711 c 0,0 -10.10812,-13.51156 -32.6978,-27.04398 z"
       id="path800-9-9"
       sodipodi:nodetypes="ccccccccccccccccccccccccccccccc" />
    <path
       style="fill:#71ac42;fill-opacity:1;stroke:#556f30;stroke-width:1.99824;stroke-dasharray:none;stroke-opacity:1"
       d="m 6.4593984,237.62034 c 0,0 68.1262956,-24.26828 100.0497116,-34.2538 31.77944,-9.94048 97.50363,-8.78404 97.50363,-8.78404"
       id="path4410-6-8"
       sodipodi:nodetypes="csc" />
  </g>
</svg>
